<svg xmlns="http://www.w3.org/2000/svg" xmlns:xlink="http://www.w3.org/1999/xlink" width="816" zoomAndPan="magnify" viewBox="0 0 612 197.999996" height="264" preserveAspectRatio="xMidYMid meet" version="1.0"><defs><clipPath id="7c540fdc03"><path d="M 0 23.773438 L 612 23.773438 L 612 172 L 0 172 Z M 0 23.773438 " clip-rule="nonzero"/></clipPath><clipPath id="3670983480"><path d="M 183 23.773438 L 612 23.773438 L 612 172 L 183 172 Z M 183 23.773438 " clip-rule="nonzero"/></clipPath></defs><g clip-path="url(#7c540fdc03)"><path fill="#eb6c46" d="M 73.703125 23.808594 L 538.320312 23.808594 C 578.855469 23.808594 612.015625 56.972656 612.015625 97.503906 L 612.015625 97.507812 C 612.015625 138.042969 578.855469 171.203125 538.320312 171.203125 L 73.703125 171.203125 C 33.167969 171.203125 0.00390625 138.042969 0.00390625 97.507812 L 0.00390625 97.503906 C 0.0078125 56.972656 33.167969 23.808594 73.703125 23.808594 Z M 73.703125 23.808594 " fill-opacity="1" fill-rule="evenodd"/></g><path fill="#b84928" d="M 589.914062 150 C 576.59375 163.09375 558.359375 171.203125 538.320312 171.203125 L 73.703125 171.203125 C 42.015625 171.203125 14.835938 150.9375 4.476562 122.730469 C 33.757812 80.644531 92.574219 66.402344 155.585938 76.910156 C 222.144531 88.011719 269.46875 126.8125 337.914062 144.253906 C 412.386719 163.230469 512.679688 172.890625 589.914062 150 Z M 589.914062 150 " fill-opacity="1" fill-rule="evenodd"/><g clip-path="url(#3670983480)"><path fill="#9f3616" d="M 538.320312 23.808594 C 578.855469 23.808594 612.015625 56.972656 612.015625 97.503906 L 612.015625 97.507812 C 612.015625 138.042969 578.855469 171.203125 538.320312 171.203125 L 183.128906 171.203125 C 374.714844 152.210938 403.691406 23.808594 538.320312 23.808594 Z M 538.320312 23.808594 " fill-opacity="1" fill-rule="evenodd"/></g></svg>