<svg xmlns="http://www.w3.org/2000/svg" xmlns:xlink="http://www.w3.org/1999/xlink" width="816" zoomAndPan="magnify" viewBox="0 0 612 197.999996" height="264" preserveAspectRatio="xMidYMid meet" version="1.0"><defs><clipPath id="4f35cbb1a0"><path d="M 0 16.351562 L 612 16.351562 L 612 164 L 0 164 Z M 0 16.351562 " clip-rule="nonzero"/></clipPath><clipPath id="1082985668"><path d="M 3 16.351562 L 612 16.351562 L 612 164 L 3 164 Z M 3 16.351562 " clip-rule="nonzero"/></clipPath></defs><g clip-path="url(#4f35cbb1a0)"><path fill="#ffcc00" d="M 74 16.355469 L 537.980469 16.355469 C 578.460938 16.355469 611.578125 49.421875 611.578125 89.832031 C 611.578125 130.246094 578.460938 163.308594 537.980469 163.308594 L 74 163.308594 C 33.523438 163.308594 0.402344 130.246094 0.402344 89.832031 C 0.402344 49.421875 33.523438 16.355469 74 16.355469 Z M 74 16.355469 " fill-opacity="1" fill-rule="evenodd"/></g><g clip-path="url(#1082985668)"><path fill="#e8ba04" d="M 443.882812 16.355469 L 537.980469 16.355469 C 578.460938 16.355469 611.574219 49.421875 611.574219 89.832031 C 611.574219 130.246094 578.460938 163.3125 537.980469 163.3125 L 74 163.3125 C 40.820312 163.3125 12.589844 141.09375 3.488281 110.824219 C 61.324219 169.355469 176.351562 144.84375 217.871094 119.96875 C 291.875 75.625 351.289062 21.683594 443.882812 16.355469 Z M 443.882812 16.355469 " fill-opacity="1" fill-rule="evenodd"/></g><path fill="#d6aa07" d="M 587.316406 35.429688 C 602.195312 48.898438 611.578125 68.324219 611.578125 89.835938 C 611.578125 130.25 578.457031 163.316406 537.980469 163.316406 L 317.070312 163.316406 C 436.988281 158.8125 449.796875 63.140625 587.316406 35.429688 Z M 587.316406 35.429688 " fill-opacity="1" fill-rule="evenodd"/></svg>